<svg xmlns="http://www.w3.org/2000/svg" width="47" height="47" viewBox="0 0 55 55" fill="none"><g clip-path="url(#clip0_1308_1106)"><path d="M0 55H55V0H0V55ZM0.859375 0.859375H54.1406V54.1406H0.859375V0.859375Z" fill="white"></path><path d="M11.0688 28.961H26.4688L18.7688 15.6578L11.0688 28.961ZM12.5642 28.1016L18.7688 17.3766L24.9735 28.1016H12.5642Z" fill="white"></path><path d="M28.5312 22.9453H43.9312L36.2312 9.64221L28.5312 22.9453ZM30.0266 22.086L36.2312 11.361L42.4359 22.086H30.0266Z" fill="white"></path><path d="M11.0688 45.4265H26.4688L18.7688 32.1234L11.0688 45.4265ZM12.5642 44.5672L18.7688 33.8422L24.9735 44.5672H12.5642Z" fill="white"></path><path d="M28.5312 39.4109H43.9312L36.2312 26.1078L28.5312 39.4109ZM30.0266 38.5515L36.2312 27.8265L42.4359 38.5515H30.0266Z" fill="white"></path></g><defs><clipPath id="clip0_1308_1106"><rect width="55" height="55" fill="white"></rect></clipPath></defs></svg>
