<svg xmlns="http://www.w3.org/2000/svg" width="34" height="29" viewBox="0 0 34 29" fill="none"><path d="M30.9401 5.82401H22.7401V3.37601C22.7401 2.02635 21.6364 0.928009 20.2801 0.928009H13.7201C12.3638 0.928009 11.2601 2.02635 11.2601 3.37601V5.82401H3.0601C1.70382 5.82401 0.600098 6.92234 0.600098 8.27201V26.224C0.600098 27.5737 1.70382 28.672 3.0601 28.672H30.9401C32.2964 28.672 33.4001 27.5737 33.4001 26.224V8.27201C33.4001 6.92234 32.2964 5.82401 30.9401 5.82401ZM12.9001 3.37601C12.9001 2.92639 13.2683 2.56001 13.7201 2.56001H20.2801C20.7319 2.56001 21.1001 2.92639 21.1001 3.37601V5.82401H12.9001V3.37601ZM3.0601 7.45601H30.9401C31.3919 7.45601 31.7601 7.82239 31.7601 8.27201V13.3859L17.0001 18.024L2.2401 13.3859V8.27201C2.2401 7.82239 2.60828 7.45601 3.0601 7.45601ZM30.9401 27.04H3.0601C2.60828 27.04 2.2401 26.6736 2.2401 26.224V15.0978L16.7533 19.6585C16.9148 19.7091 17.0846 19.7091 17.2469 19.6585L31.7601 15.0978V26.224C31.7601 26.6736 31.3919 27.04 30.9401 27.04Z" fill="black"></path></svg>