<svg xmlns="http://www.w3.org/2000/svg" width="37" height="37" viewBox="0 0 37 37" fill="none"><path d="M18.5001 0.888C8.78212 0.888 0.870117 8.8368 0.870117 18.6C0.870117 28.3632 8.78212 36.312 18.5001 36.312C28.2181 36.312 36.1301 28.3632 36.1301 18.6C36.1301 8.8368 28.2181 0.888 18.5001 0.888ZM18.5001 34.584C9.72812 34.584 2.59012 27.4128 2.59012 18.6C2.59012 9.7872 9.72812 2.616 18.5001 2.616C27.2721 2.616 34.4101 9.7872 34.4101 18.6C34.4101 27.4128 27.2721 34.584 18.5001 34.584Z" fill="black"></path><path d="M19.3603 6.07199C18.8873 6.07199 18.5003 6.46079 18.5003 6.93599V18.5136L11.1903 22.5744C10.7603 22.7904 10.6313 23.352 10.8463 23.7408C11.0183 24.0432 11.2763 24.1728 11.6203 24.1728C11.7493 24.1728 11.9213 24.1296 12.0503 24.0432L20.2203 19.464V6.93599C20.2203 6.46079 19.8333 6.07199 19.3603 6.07199Z" fill="black"></path></svg>
