<svg xmlns="http://www.w3.org/2000/svg" width="39" height="52" viewBox="0 0 39 52" fill="none"><path fill-rule="evenodd" clip-rule="evenodd" d="M38.5442 11.9283V49.3558C38.5424 49.7187 38.4351 50.0731 38.2355 50.3747C38.0358 50.6764 37.7528 50.9118 37.4217 51.0518C37.2018 51.1427 36.9663 51.1884 36.7288 51.1861L2.26538 51.089C1.78575 51.0878 1.3261 50.8946 0.986949 50.5516C0.647799 50.2087 0.456745 49.7438 0.455566 49.2587V2.24365C0.457842 1.88119 0.565541 1.52742 0.765243 1.22643C0.964945 0.925442 1.24782 0.690545 1.57861 0.551014C1.79825 0.460039 2.03361 0.414199 2.27096 0.416168L27.0314 0.483309C27.2661 0.481394 27.4989 0.526699 27.7161 0.616586C27.9333 0.706474 28.1307 0.83915 28.2967 1.0069L37.9997 10.6227C38.1732 10.7918 38.3113 10.9944 38.4058 11.2185C38.417 11.2462 38.4264 11.275 38.4348 11.302C38.5084 11.5029 38.5462 11.7153 38.5464 11.9294L38.5442 11.9283ZM10.5518 36.0534L8.64435 37.9824L7.64348 36.9714C7.49544 36.8274 7.29748 36.7479 7.09213 36.75C6.88677 36.752 6.6904 36.8354 6.54518 36.9823C6.39997 37.1291 6.3175 37.3277 6.31548 37.5354C6.31346 37.7431 6.39206 37.9433 6.53439 38.093L8.0898 39.666C8.23689 39.8147 8.43636 39.8983 8.64435 39.8983C8.85233 39.8983 9.0518 39.8147 9.19889 39.666L11.6614 37.1762C11.8086 37.0274 11.8913 36.8255 11.8913 36.6151C11.8913 36.4046 11.8086 36.2028 11.6614 36.054C11.5143 35.9052 11.3147 35.8215 11.1066 35.8215C10.8985 35.8215 10.6989 35.9052 10.5518 36.054V36.0534ZM14.823 38.6527H31.9108C32.1188 38.6527 32.3183 38.5691 32.4654 38.4204C32.6125 38.2716 32.6952 38.0698 32.6952 37.8594C32.6952 37.649 32.6125 37.4473 32.4654 37.2985C32.3183 37.1497 32.1188 37.0662 31.9108 37.0662H14.823C14.615 37.0662 14.4155 37.1497 14.2684 37.2985C14.1213 37.4473 14.0386 37.649 14.0386 37.8594C14.0386 38.0698 14.1213 38.2716 14.2684 38.4204C14.4155 38.5691 14.615 38.6527 14.823 38.6527ZM10.5518 30.3774L8.64435 32.3065L7.64348 31.2948C7.49544 31.1509 7.29748 31.0714 7.09213 31.0735C6.88677 31.0755 6.6904 31.1589 6.54518 31.3058C6.39997 31.4526 6.3175 31.6512 6.31548 31.8589C6.31346 32.0666 6.39206 32.2668 6.53439 32.4165L8.0898 33.9895C8.23689 34.1382 8.43636 34.2218 8.64435 34.2218C8.85233 34.2218 9.0518 34.1382 9.19889 33.9895L11.6614 31.4985C11.8085 31.3497 11.8911 31.1479 11.8911 30.9375C11.891 30.7271 11.8083 30.5253 11.6612 30.3766C11.514 30.2279 11.3145 30.1443 11.1064 30.1444C10.8984 30.1444 10.6989 30.2286 10.5518 30.3774ZM14.823 32.9768H31.9108C32.1188 32.9768 32.3183 32.8932 32.4654 32.7444C32.6125 32.5956 32.6952 32.3939 32.6952 32.1835C32.6952 31.9731 32.6125 31.7713 32.4654 31.6225C32.3183 31.4738 32.1188 31.3902 31.9108 31.3902H14.823C14.615 31.3902 14.4155 31.4738 14.2684 31.6225C14.1213 31.7713 14.0386 31.9731 14.0386 32.1835C14.0386 32.3939 14.1213 32.5956 14.2684 32.7444C14.4155 32.8932 14.615 32.9768 14.823 32.9768ZM10.5518 24.7015L8.64435 26.6305L7.64348 25.6183C7.49633 25.4696 7.29679 25.3861 7.08874 25.3861C6.88069 25.3862 6.68118 25.4698 6.53411 25.6186C6.38703 25.7674 6.30444 25.9692 6.30449 26.1796C6.30454 26.39 6.38724 26.5918 6.53439 26.7405L8.0898 28.3136C8.23689 28.4623 8.43636 28.5458 8.64435 28.5458C8.85233 28.5458 9.0518 28.4623 9.19889 28.3136L11.6614 25.8231C11.8085 25.6743 11.8911 25.4725 11.8911 25.2621C11.891 25.0517 11.8083 24.8499 11.6612 24.7012C11.514 24.5525 11.3145 24.4689 11.1064 24.469C10.8984 24.469 10.6989 24.5527 10.5518 24.7015ZM14.823 27.3008H31.9108C32.1188 27.3008 32.3183 27.2172 32.4654 27.0685C32.6125 26.9197 32.6952 26.7179 32.6952 26.5075C32.6952 26.2971 32.6125 26.0954 32.4654 25.9466C32.3183 25.7978 32.1188 25.7142 31.9108 25.7142H14.823C14.615 25.7142 14.4155 25.7978 14.2684 25.9466C14.1213 26.0954 14.0386 26.2971 14.0386 26.5075C14.0386 26.7179 14.1213 26.9197 14.2684 27.0685C14.4155 27.2172 14.615 27.3008 14.823 27.3008ZM10.5518 19.0255L8.64435 20.9546L7.64348 19.9424C7.49633 19.7936 7.29679 19.7101 7.08874 19.7101C6.88069 19.7102 6.68118 19.7938 6.53411 19.9426C6.38703 20.0915 6.30444 20.2933 6.30449 20.5037C6.30454 20.7141 6.38724 20.9158 6.53439 21.0646L8.0898 22.6404C8.23689 22.7891 8.43636 22.8727 8.64435 22.8727C8.85233 22.8727 9.0518 22.7891 9.19889 22.6404L11.6614 20.15C11.8085 20.0012 11.8911 19.7994 11.8911 19.589C11.891 19.3786 11.8083 19.1768 11.6612 19.0281C11.514 18.8793 11.3145 18.7958 11.1064 18.7958C10.8984 18.7959 10.6989 18.8795 10.5518 19.0283V19.0255ZM14.823 21.6248H31.9108C32.0156 21.6277 32.1199 21.6092 32.2175 21.5706C32.3152 21.532 32.4042 21.474 32.4793 21.4C32.5544 21.3261 32.6141 21.2376 32.6549 21.14C32.6957 21.0423 32.7167 20.9373 32.7167 20.8313C32.7167 20.7253 32.6957 20.6203 32.6549 20.5226C32.6141 20.4249 32.5544 20.3365 32.4793 20.2625C32.4042 20.1885 32.3152 20.1305 32.2175 20.0919C32.1199 20.0533 32.0156 20.0349 31.9108 20.0377H14.823C14.6185 20.0432 14.4243 20.1293 14.2816 20.2775C14.1389 20.4257 14.059 20.6244 14.059 20.8313C14.059 21.0382 14.1389 21.2369 14.2816 21.3851C14.4243 21.5333 14.6185 21.6193 14.823 21.6248ZM10.5518 13.349L8.64435 15.2786L7.64348 14.2664C7.49633 14.1177 7.29679 14.0341 7.08874 14.0342C6.88069 14.0342 6.68118 14.1179 6.53411 14.2667C6.38703 14.4155 6.30444 14.6173 6.30449 14.8277C6.30454 15.0381 6.38724 15.2399 6.53439 15.3886L8.0898 16.9616C8.23689 17.1103 8.43636 17.1939 8.64435 17.1939C8.85233 17.1939 9.0518 17.1103 9.19889 16.9616L11.6614 14.4712C11.7343 14.3975 11.7921 14.3101 11.8315 14.2138C11.871 14.1175 11.8913 14.0143 11.8913 13.9101C11.8913 13.8059 11.871 13.7027 11.8315 13.6064C11.7921 13.5102 11.7343 13.4227 11.6614 13.349C11.5886 13.2753 11.5021 13.2169 11.4069 13.177C11.3117 13.1371 11.2097 13.1166 11.1066 13.1166C11.0036 13.1166 10.9015 13.1371 10.8063 13.177C10.7111 13.2169 10.6246 13.2753 10.5518 13.349ZM7.08893 8.85789C6.98413 8.86071 6.87982 8.84228 6.78218 8.80367C6.68453 8.76506 6.59553 8.70706 6.52041 8.63309C6.44529 8.55912 6.38559 8.47068 6.34482 8.373C6.30406 8.27531 6.28305 8.17035 6.28305 8.06432C6.28305 7.95829 6.30406 7.85334 6.34482 7.75565C6.38559 7.65796 6.44529 7.56953 6.52041 7.49556C6.59553 7.42159 6.68453 7.36359 6.78218 7.32498C6.87982 7.28637 6.98413 7.26794 7.08893 7.27076H26.5689V2.06253L2.27096 1.99426C2.2375 1.99347 2.2042 1.99902 2.17277 2.01063C2.14333 2.02438 2.11667 2.0435 2.0941 2.06705C2.07053 2.08961 2.05158 2.11664 2.03831 2.1466C2.0276 2.17738 2.02268 2.20991 2.02381 2.24252V49.2587C2.02365 49.2914 2.02988 49.3238 2.04213 49.354C2.05439 49.3842 2.07243 49.4116 2.09522 49.4348C2.1393 49.4806 2.19938 49.5072 2.26259 49.5087L36.726 49.6057C36.7595 49.6066 36.7929 49.6009 36.8242 49.5888C36.8828 49.56 36.93 49.5118 36.9581 49.4523C36.9688 49.4213 36.9737 49.3886 36.9726 49.3558V12.4739H28.381C27.9004 12.4733 27.4396 12.28 27.0997 11.9364C26.7599 11.5927 26.5686 11.1268 26.5678 10.6408V8.85789H7.08893ZM14.823 15.9489H31.9108C32.0156 15.9517 32.1199 15.9333 32.2175 15.8947C32.3152 15.8561 32.4042 15.7981 32.4793 15.7241C32.5544 15.6501 32.6141 15.5617 32.6549 15.464C32.6957 15.3663 32.7167 15.2614 32.7167 15.1553C32.7167 15.0493 32.6957 14.9443 32.6549 14.8467C32.6141 14.749 32.5544 14.6605 32.4793 14.5866C32.4042 14.5126 32.3152 14.4546 32.2175 14.416C32.1199 14.3774 32.0156 14.3589 31.9108 14.3618H14.823C14.6185 14.3673 14.4243 14.4533 14.2816 14.6015C14.1389 14.7497 14.059 14.9484 14.059 15.1553C14.059 15.3622 14.1389 15.5609 14.2816 15.7091C14.4243 15.8573 14.6185 15.9434 14.823 15.9489ZM24.9633 44.3287H31.9108C32.0156 44.3315 32.1199 44.3131 32.2175 44.2745C32.3152 44.2358 32.4042 44.1778 32.4793 44.1039C32.5544 44.0299 32.6141 43.9415 32.6549 43.8438C32.6957 43.7461 32.7167 43.6411 32.7167 43.5351C32.7167 43.4291 32.6957 43.3241 32.6549 43.2264C32.6141 43.1287 32.5544 43.0403 32.4793 42.9663C32.4042 42.8924 32.3152 42.8344 32.2175 42.7958C32.1199 42.7572 32.0156 42.7387 31.9108 42.7415H24.9633C24.7588 42.7471 24.5646 42.8331 24.4219 42.9813C24.2791 43.1295 24.1993 43.3282 24.1993 43.5351C24.1993 43.742 24.2791 43.9407 24.4219 44.0889C24.5646 44.2371 24.7588 44.3232 24.9633 44.3287ZM28.1383 3.06626V10.6408C28.1389 10.7059 28.1648 10.7683 28.2104 10.8143C28.256 10.8603 28.3177 10.8863 28.3821 10.8868H36.032L28.1383 3.06626Z" fill="black"></path></svg>