<svg xmlns="http://www.w3.org/2000/svg" width="40" height="52" viewBox="0 0 40 52" fill="none"><path d="M25.4707 8.02816V13.5536V14.3536V14.3986H25.5157H26.3126H31.8163C31.4094 17.0807 29.0961 19.143 26.3126 19.143C23.2433 19.143 20.7452 16.6361 20.7452 13.5536L25.4707 8.02816ZM25.4707 8.02816C22.7995 8.43672 20.746 10.7589 20.7452 13.5536L25.4707 8.02816ZM32.7669 13.5528V13.5078H32.7219H26.3576V7.1192V7.0742H26.3126C22.7478 7.0742 19.8583 9.97531 19.8583 13.5536C19.8583 17.1319 22.7487 20.0322 26.3126 20.0322C29.8773 20.0322 32.7669 17.1311 32.7669 13.5528Z" fill="black" stroke="black" stroke-width="0.09"></path><path d="M26.9971 6.387H26.9521V6.432V12.8664V12.9114H26.9971H33.4063H33.4513V12.8664C33.4513 9.28811 30.5618 6.387 26.9971 6.387ZM27.8389 12.0214V7.34095C30.2361 7.70723 32.1352 9.61448 32.5008 12.0214H27.8389Z" fill="black" stroke="black" stroke-width="0.09"></path><path d="M6.7666 43.1966H6.7216V43.2416V44.0416V44.0866H6.7666H33.4834H33.5284V44.0416V43.2416V43.1966H33.4834H6.7666Z" fill="black" stroke="black" stroke-width="0.09"></path><path d="M6.7666 39.9174H6.7216V39.9624V40.7624V40.8074H6.7666H33.4834H33.5284V40.7624V39.9624V39.9174H33.4834H6.7666Z" fill="black" stroke="black" stroke-width="0.09"></path><path d="M6.7666 36.6382H6.7216V36.6832V37.4832V37.5282H6.7666H33.4834H33.5284V37.4832V36.6832V36.6382H33.4834H6.7666Z" fill="black" stroke="black" stroke-width="0.09"></path><path d="M6.7666 33.3582H6.7216V33.4032V34.2032V34.2482H6.7666H33.4834H33.5284V34.2032V33.4032V33.3582H33.4834H6.7666Z" fill="black" stroke="black" stroke-width="0.09"></path><path d="M6.7666 26.799H6.7216V26.844V27.644V27.689H6.7666H33.4834H33.5284V27.644V26.844V26.799H33.4834H6.7666Z" fill="black" stroke="black" stroke-width="0.09"></path><path d="M6.7666 30.079H6.7216V30.124V30.924V30.969H6.7666H33.4834H33.5284V30.924V30.124V30.079H33.4834H6.7666Z" fill="black" stroke="black" stroke-width="0.09"></path><path d="M6.7666 23.519H6.7216V23.564V24.364V24.409H6.7666H33.4834H33.5284V24.364V23.564V23.519H33.4834H6.7666Z" fill="black" stroke="black" stroke-width="0.09"></path><path d="M6.7666 20.2398H6.7216V20.2848V21.0848V21.1298H6.7666H16.0056H16.0506V21.0848V20.2848V20.2398H16.0056H6.7666Z" fill="black" stroke="black" stroke-width="0.09"></path><path d="M6.7666 16.9598H6.7216V17.0048V17.8048V17.8498H6.7666H16.0056H16.0506V17.8048V17.0048V16.9598H16.0056H6.7666Z" fill="black" stroke="black" stroke-width="0.09"></path><path d="M6.7666 13.6806H6.7216V13.7256V14.5256V14.5706H6.7666H16.0056H16.0506V14.5256V13.7256V13.6806H16.0056H6.7666Z" fill="black" stroke="black" stroke-width="0.09"></path><path d="M6.7666 10.4006H6.7216V10.4456V11.2456V11.2906H6.7666H16.0056H16.0506V11.2456V10.4456V10.4006H16.0056H6.7666Z" fill="black" stroke="black" stroke-width="0.09"></path><path d="M6.7666 7.1214H6.7216V7.1664V7.9664V8.0114H6.7666H16.0056H16.0506V7.9664V7.1664V7.1214H16.0056H6.7666Z" fill="black" stroke="black" stroke-width="0.09"></path><path d="M4.8003 51.245H35.4497C37.5737 51.245 39.295 49.5167 39.295 47.3848V3.8152C39.295 1.68331 37.5737 -0.045 35.4497 -0.045H4.8003C2.67631 -0.045 0.955 1.68331 0.955 3.8152V47.3848C0.955 49.5167 2.67631 51.245 4.8003 51.245ZM1.84188 3.8152C1.84188 2.17749 3.16941 0.845 4.8003 0.845H35.4497C37.0806 0.845 38.4081 2.17749 38.4081 3.8152V47.3848C38.4081 49.0225 37.0806 50.355 35.4497 50.355H4.8003C3.16941 50.355 1.84188 49.0225 1.84188 47.3848V3.8152Z" fill="black" stroke="black" stroke-width="0.09"></path></svg>