<svg xmlns="http://www.w3.org/2000/svg" width="45" height="56" viewBox="0 0 45 56" fill="none"><path d="M6.51841 8.46438H31.5046C31.8773 8.46438 32.1799 8.15946 32.1799 7.78247C32.1799 7.40547 31.8773 7.10055 31.5046 7.10055H6.51841C6.1457 7.10055 5.84314 7.40547 5.84314 7.78247C5.84314 8.15946 6.1457 8.46438 6.51841 8.46438ZM6.51841 13.1805H31.5046C31.8773 13.1805 32.1799 12.8756 32.1799 12.4986C32.1799 12.1222 31.8773 11.8167 31.5046 11.8167H6.51841C6.1457 11.8167 5.84314 12.1216 5.84314 12.4986C5.84314 12.8756 6.1457 13.1805 6.51841 13.1805ZM6.51841 17.8972H31.5046C31.8773 17.8972 32.1799 17.5923 32.1799 17.2153C32.1799 16.8389 31.8773 16.5334 31.5046 16.5334H6.51841C6.1457 16.5334 5.84314 16.8383 5.84314 17.2153C5.84314 17.5923 6.1457 17.8972 6.51841 17.8972ZM6.51841 22.6133H31.5046C31.8773 22.6133 32.1799 22.3084 32.1799 21.9314C32.1799 21.555 31.8773 21.2495 31.5046 21.2495H6.51841C6.1457 21.2495 5.84314 21.5544 5.84314 21.9314C5.84314 22.3084 6.1457 22.6133 6.51841 22.6133ZM6.51841 27.33H31.5046C31.8773 27.33 32.1799 27.0251 32.1799 26.6481C32.1799 26.2717 31.8773 25.9662 31.5046 25.9662H6.51841C6.1457 25.9662 5.84314 26.2711 5.84314 26.6481C5.84314 27.0251 6.1457 27.33 6.51841 27.33ZM6.51841 32.0461H31.5046C31.8773 32.0461 32.1799 31.7412 32.1799 31.3642C32.1799 30.9872 31.8773 30.6823 31.5046 30.6823H6.51841C6.1457 30.6823 5.84314 30.9872 5.84314 31.3642C5.84314 31.7412 6.1457 32.0461 6.51841 32.0461ZM34.6742 43.8708V40.8826C34.9048 40.935 35.1103 41.0126 35.2884 41.1155C35.588 41.2873 35.8332 41.5171 36.0387 41.8177C36.1089 41.9193 36.2169 41.9883 36.3376 42.0087C36.4596 42.0271 36.5835 41.9976 36.6811 41.923L37.113 41.5959C37.3057 41.4493 37.3515 41.1752 37.2148 40.9738C36.9062 40.5173 36.5054 40.1471 36.0235 39.8724C35.6441 39.6562 35.1963 39.5114 34.687 39.4406V38.7359C34.687 38.4839 34.4851 38.28 34.235 38.28H33.7756C33.5262 38.28 33.3236 38.4839 33.3236 38.7359V39.4295C32.5898 39.512 31.9719 39.743 31.4833 40.1182C30.8592 40.598 30.542 41.2984 30.542 42.199C30.542 43.0454 30.8165 43.7088 31.357 44.1696C31.798 44.546 32.4434 44.8379 33.3236 45.0572V48.3522C33.007 48.2906 32.7313 48.1871 32.502 48.043C32.1439 47.8182 31.82 47.5194 31.5394 47.1547C31.465 47.058 31.3546 46.9958 31.2344 46.9816C31.1142 46.9687 30.9928 47.0038 30.8983 47.0808L30.4664 47.435C30.2779 47.5896 30.2437 47.8681 30.3908 48.0639C30.7574 48.5543 31.2094 48.9645 31.7334 49.2836C32.1732 49.5522 32.7075 49.7234 33.3242 49.7937V50.4885C33.3242 50.7405 33.5262 50.9444 33.7763 50.9444H34.2356C34.4851 50.9444 34.6876 50.7405 34.6876 50.4885V49.785C35.4318 49.6809 36.0509 49.4118 36.5322 48.983C37.127 48.4539 37.4283 47.7128 37.4283 46.7796C37.4283 45.9018 37.1611 45.218 36.6347 44.7474C36.1986 44.3575 35.555 44.0698 34.6742 43.8708ZM33.3249 43.5622C33.0735 43.4883 32.857 43.4088 32.6776 43.3251C32.4336 43.2105 32.2598 43.0663 32.1591 42.8969C32.0542 42.7201 32.0012 42.4756 32.0012 42.1707C32.0012 41.7296 32.1329 41.4222 32.4166 41.2042C32.6453 41.028 32.9503 40.9109 33.3249 40.853V43.5622ZM35.5416 47.9327C35.3238 48.1299 35.0329 48.2678 34.6742 48.3455V45.332C35.1896 45.4767 35.4666 45.6449 35.6142 45.7737C35.8551 45.9849 35.9723 46.3231 35.9723 46.8067C35.9716 47.3026 35.8307 47.6709 35.5416 47.9327ZM37.6906 34.4122V2.12512C37.6906 0.997226 36.7823 0.0800018 35.6654 0.0800018H2.35821C1.2413 0.0800018 0.333008 0.997226 0.333008 2.12512V46.4543C0.333008 47.5822 1.2413 48.4995 2.35821 48.4995H23.7741C25.329 52.6002 29.2647 55.52 33.8647 55.52C39.8207 55.52 44.6672 50.6265 44.6672 44.6113C44.6666 39.9568 41.7636 35.9756 37.6906 34.4122ZM6.51841 40.1157C6.1457 40.1157 5.84314 40.4206 5.84314 40.7976C5.84314 41.1746 6.1457 41.4795 6.51841 41.4795H23.5185C23.2233 42.4725 23.0622 43.5234 23.0622 44.6119C23.0622 45.4811 23.1665 46.3256 23.3575 47.1369H2.35821C1.98611 47.1369 1.68294 46.8313 1.68294 46.4549V2.12512C1.68294 1.74936 1.9855 1.44321 2.35821 1.44321H35.6654C36.0375 1.44321 36.3407 1.74875 36.3407 2.12512V33.9951C35.5453 33.806 34.7169 33.7025 33.8647 33.7025C31.7419 33.7025 29.7625 34.3265 28.0904 35.3984H6.51841C6.1457 35.3984 5.84314 35.7033 5.84314 36.0803C5.84314 36.4573 6.1457 36.7622 6.51841 36.7622H26.3739C25.3955 37.7145 24.5951 38.8504 24.026 40.1151L6.51841 40.1157ZM33.8647 54.1562C28.6529 54.1562 24.4128 49.8744 24.4128 44.6113C24.4128 39.3482 28.6529 35.0663 33.8647 35.0663C39.0765 35.0663 43.3167 39.3482 43.3167 44.6113C43.3167 49.8744 39.0765 54.1562 33.8647 54.1562Z" fill="black"></path></svg>