<svg xmlns="http://www.w3.org/2000/svg" width="39" height="39" viewBox="0 0 39 39" fill="none"><path fill-rule="evenodd" clip-rule="evenodd" d="M19.5002 36.9148C16.019 36.9149 12.6161 35.8879 9.72153 33.9634C6.827 32.039 4.57095 29.3036 3.23866 26.1032C1.90638 22.9028 1.55771 19.3811 2.23673 15.9835C2.91576 12.5859 4.59199 9.46503 7.05345 7.01546C9.51492 4.56588 12.651 2.89768 16.0653 2.22179C19.4795 1.54591 23.0184 1.89271 26.2346 3.21834C29.4507 4.54397 32.1996 6.78888 34.1336 9.6692C36.0677 12.5495 37.1 15.9358 37.1 19.4C37.0946 24.0434 35.2386 28.4951 31.9392 31.7786C28.6398 35.0621 24.1663 36.9092 19.5002 36.9148ZM19.5002 0.0736694C15.659 0.0736694 11.9042 1.20714 8.7104 3.33074C5.51663 5.45434 3.02738 8.4727 1.55745 12.0041C0.0875164 15.5355 -0.297085 19.4214 0.45228 23.1704C1.20165 26.9193 3.05132 30.3629 5.7674 33.0658C8.48349 35.7686 11.944 37.6092 15.7113 38.3549C19.4786 39.1007 23.3835 38.7179 26.9323 37.2552C30.481 35.7924 33.5142 33.3153 35.6482 30.1371C37.7822 26.9589 38.9212 23.2224 38.9212 19.4C38.9156 14.276 36.8677 9.36355 33.2267 5.74037C29.5858 2.11719 24.6492 0.0792398 19.5002 0.0736694ZM24.7093 24.2715C24.7093 22.3204 22.8496 20.6961 20.4108 20.3676V28.175C22.8496 27.8447 24.7093 26.2209 24.7093 24.2715ZM14.291 14.5285C14.291 16.4796 16.1494 18.1038 18.5895 18.4324V10.625C16.1494 10.9552 14.291 12.5791 14.291 14.5285ZM24.7093 14.5285C24.7093 14.7686 24.8052 14.9988 24.9758 15.1686C25.1464 15.3384 25.3778 15.4338 25.6191 15.4338C25.8604 15.4338 26.0918 15.3384 26.2624 15.1686C26.433 14.9988 26.5289 14.7686 26.5289 14.5285C26.5151 13.7204 26.3156 12.9262 25.9457 12.2067C25.5757 11.4872 25.0452 10.8615 24.3947 10.3776C23.2445 9.48549 21.8625 8.93827 20.4108 8.80015V7.48896C20.4108 7.24863 20.3149 7.01813 20.1441 6.84819C19.9733 6.67825 19.7417 6.58277 19.5002 6.58277C19.2586 6.58277 19.027 6.67825 18.8562 6.84819C18.6855 7.01813 18.5895 7.24863 18.5895 7.48896V8.80015C17.1372 8.93796 15.7546 9.48519 14.6039 10.3776C13.9535 10.8616 13.423 11.4873 13.0531 12.2067C12.6831 12.9262 12.4836 13.7204 12.4697 14.5285C12.4836 15.3368 12.6832 16.1313 13.0531 16.8511C13.423 17.571 13.9534 18.197 14.6039 18.6815C15.7542 19.5745 17.1371 20.1218 18.5895 20.2589V28.175C16.1494 27.8447 14.291 26.2209 14.291 24.2715C14.291 24.0312 14.1951 23.8007 14.0243 23.6307C13.8535 23.4608 13.6219 23.3653 13.3804 23.3653C13.1389 23.3653 12.9072 23.4608 12.7365 23.6307C12.5657 23.8007 12.4697 24.0312 12.4697 24.2715C12.4836 25.0796 12.6831 25.8738 13.0531 26.5932C13.423 27.3127 13.9535 27.9384 14.6039 28.4224C15.7543 29.315 17.1372 29.8617 18.5895 29.9981V31.311C18.5895 31.5513 18.6855 31.7818 18.8562 31.9518C19.027 32.1217 19.2586 32.2172 19.5002 32.2172C19.7417 32.2172 19.9733 32.1217 20.1441 31.9518C20.3149 31.7818 20.4108 31.5513 20.4108 31.311V29.9981C21.8625 29.8614 23.2447 29.3147 24.3947 28.4224C25.0553 27.9478 25.5932 27.324 25.9642 26.6022C26.3352 25.8804 26.5287 25.0812 26.5287 24.2704C26.5287 23.4597 26.3352 22.6605 25.9642 21.9387C25.5932 21.2169 25.0553 20.593 24.3947 20.1185C23.2446 19.2265 21.8624 18.68 20.4108 18.5432V10.625C22.8496 10.9552 24.7093 12.5791 24.7093 14.5285Z" fill="black"></path></svg>