<svg xmlns="http://www.w3.org/2000/svg" width="52" height="30" viewBox="0 0 52 30" fill="none"><path fill-rule="evenodd" clip-rule="evenodd" d="M26.2154 0.600159C17.5355 0.610179 8.84173 5.30613 0.434102 14.5127C0.406937 14.5354 0.381839 14.5605 0.359102 14.5877C0.339134 14.6052 0.320352 14.624 0.302882 14.6441C0.295714 14.6625 0.289466 14.6814 0.284162 14.7005C0.284066 14.7067 0.284066 14.7129 0.284162 14.7191C0.277786 14.7251 0.271545 14.7313 0.265442 14.7377C0.25189 14.7557 0.23937 14.7746 0.227942 14.7941C0.220774 14.8125 0.214526 14.8314 0.209222 14.8505C0.209126 14.8567 0.209126 14.8629 0.209222 14.8691C0.208837 14.8815 0.208837 14.8939 0.209222 14.9063C0.209126 14.9125 0.209126 14.9187 0.209222 14.9249C0.202553 14.937 0.196309 14.9495 0.190502 14.9621C0.190406 14.9683 0.190406 14.9745 0.190502 14.9807C0.193156 15.0187 0.199424 15.0564 0.209222 15.0932C0.219477 15.1519 0.238426 15.2088 0.265442 15.2619C0.27687 15.2814 0.28939 15.3002 0.302942 15.3183C0.308749 15.3309 0.314993 15.3433 0.321662 15.3555C0.33361 15.3684 0.346122 15.3809 0.359162 15.3927C0.37059 15.4122 0.38311 15.431 0.396662 15.4491C0.405602 15.4587 0.425222 15.4581 0.434162 15.4677C0.451632 15.4877 0.470413 15.5066 0.490382 15.5241C8.88118 24.6886 17.5542 29.3891 26.2154 29.3992C34.8885 29.4094 43.4325 24.7189 51.5654 15.4866C51.5718 15.4805 51.578 15.4743 51.5841 15.468C51.5929 15.4584 51.6128 15.459 51.6216 15.4494C51.6352 15.4313 51.6477 15.4125 51.6591 15.393C51.6721 15.3811 51.6847 15.3687 51.6966 15.3558C51.6967 15.3496 51.6967 15.3434 51.6966 15.3372C51.727 15.2968 51.7522 15.2527 51.7716 15.206C51.7717 15.1998 51.7717 15.1936 51.7716 15.1874C51.7984 15.1155 51.8111 15.0391 51.8091 14.9624C51.8092 14.9562 51.8092 14.95 51.8091 14.9438C51.8095 14.9314 51.8095 14.919 51.8091 14.9066C51.8092 14.9004 51.8092 14.8942 51.8091 14.888C51.8033 14.8753 51.7971 14.863 51.7904 14.8508C51.7905 14.8446 51.7905 14.8384 51.7904 14.8322C51.7846 14.8196 51.7783 14.8071 51.7717 14.795C51.7718 14.7888 51.7718 14.7826 51.7717 14.7764C51.7659 14.7638 51.7596 14.7513 51.7529 14.7392C51.753 14.733 51.753 14.7268 51.7529 14.7206C51.741 14.7076 51.7285 14.6952 51.7154 14.6833C51.7155 14.6771 51.7155 14.671 51.7154 14.6648C51.698 14.6448 51.6792 14.6259 51.6592 14.6083C51.6296 14.5747 51.5951 14.5482 51.5655 14.5146C51.548 14.4946 51.5292 14.4757 51.5093 14.4582C43.3923 5.26299 34.8697 0.591969 26.2155 0.601953L26.2154 0.600159ZM26.2154 1.80016C34.3648 1.79074 42.4965 6.12977 50.4029 15.0002C42.4972 23.8659 34.3641 28.2096 26.2154 28.2002C18.0681 28.1906 9.78462 23.8112 1.61535 14.9814C9.7816 6.15552 18.0713 1.80955 26.2154 1.80016Z" fill="black"></path><path fill-rule="evenodd" clip-rule="evenodd" d="M26.008 5.49011C20.7642 5.49011 16.498 9.74973 16.498 14.9941C16.498 20.2385 20.7642 24.4981 26.008 24.4981C31.2463 24.4981 35.512 20.2385 35.512 14.9941C35.512 9.74973 31.2463 5.49011 26.008 5.49011ZM26.008 6.69011C30.5978 6.69011 34.312 10.3985 34.312 14.9941C34.312 19.5897 30.5978 23.2981 26.008 23.2981C21.412 23.2981 17.698 19.5897 17.698 14.9941C17.698 10.3985 21.412 6.69011 26.008 6.69011Z" fill="black"></path><path fill-rule="evenodd" clip-rule="evenodd" d="M26.0048 10.3322C23.4367 10.3322 21.3428 12.4261 21.3428 14.9942C21.3428 17.5622 23.4367 19.6562 26.0048 19.6562C28.5728 19.6562 30.6668 17.5622 30.6668 14.9942C30.6668 12.4261 28.5728 10.3322 26.0048 10.3322ZM26.0048 11.5322C27.9247 11.5322 29.4668 13.0742 29.4668 14.9942C29.4668 16.9141 27.9247 18.4562 26.0048 18.4562C24.0848 18.4562 22.5428 16.9141 22.5428 14.9942C22.5428 13.0742 24.0848 11.5322 26.0048 11.5322Z" fill="black"></path></svg>