<svg xmlns="http://www.w3.org/2000/svg" width="47" height="47" viewBox="0 0 47 47" fill="none"><g clip-path="url(#clip0_1308_1076)"><path d="M23.4999 8.48938L8.48926 23.5L23.4999 38.5106L38.5105 23.5L23.4999 8.48938ZM9.53207 23.5L23.4999 9.53219L37.4677 23.5L23.4999 37.4678L9.53207 23.5Z" fill="white"></path><path d="M23.5002 16.4353L16.4355 23.5L23.5002 30.5647L30.5649 23.5L23.5002 16.4353ZM17.4784 23.5L23.5002 17.4781L29.5221 23.5L23.5002 29.5219L17.4784 23.5Z" fill="white"></path><path d="M47 5.44906C47 2.43813 44.5619 0 41.5509 0C38.54 0 36.3222 2.24719 36.1313 5.08187H10.8688C10.6778 2.24719 8.3425 0 5.44906 0C2.55562 0 0 2.43813 0 5.44906C0 8.46 2.24719 10.6778 5.08187 10.8688V36.1313C2.24719 36.3222 0 38.6575 0 41.5509C0 44.4444 2.43813 47 5.44906 47C8.46 47 10.6778 44.7528 10.8688 41.9181H36.1313C36.3222 44.7528 38.6575 47 41.5509 47C44.4444 47 47 44.5619 47 41.5509C47 38.54 44.7528 36.3222 41.9181 36.1313V10.8688C44.7528 10.6778 47 8.3425 47 5.44906ZM36.1313 41.1838H10.8688C10.6925 38.4666 8.53344 36.3075 5.81625 36.1313V10.8688C8.53344 10.6925 10.6925 8.53344 10.8688 5.81625H36.1166C36.2928 8.53344 38.4519 10.6925 41.1691 10.8688V36.1166C38.4519 36.2928 36.2928 38.4519 36.1166 41.1691L36.1313 41.1838ZM41.5509 0.734375C44.1506 0.734375 46.2656 2.84938 46.2656 5.44906C46.2656 8.04875 44.1506 10.1637 41.5509 10.1637C38.9513 10.1637 36.8363 8.04875 36.8363 5.44906C36.8363 2.84938 38.9513 0.734375 41.5509 0.734375ZM0.734375 5.44906C0.734375 2.84938 2.84938 0.734375 5.44906 0.734375C8.04875 0.734375 10.1637 2.84938 10.1637 5.44906C10.1637 8.04875 8.04875 10.1637 5.44906 10.1637C2.84938 10.1637 0.734375 8.06344 0.734375 5.44906ZM5.44906 46.2656C2.84938 46.2656 0.734375 44.1506 0.734375 41.5509C0.734375 38.9513 2.84938 36.8363 5.44906 36.8363C8.04875 36.8363 10.1637 38.9513 10.1637 41.5509C10.1637 44.1506 8.04875 46.2656 5.44906 46.2656ZM46.2656 41.5509C46.2656 44.1506 44.1506 46.2656 41.5509 46.2656C38.9513 46.2656 36.8363 44.1506 36.8363 41.5509C36.8363 38.9513 38.9513 36.8363 41.5509 36.8363C44.1506 36.8363 46.2656 38.9513 46.2656 41.5509Z" fill="white"></path></g><defs><clipPath id="clip0_1308_1076"><rect width="47" height="47" fill="white"></rect></clipPath></defs></svg>