<svg xmlns="http://www.w3.org/2000/svg" width="47" height="47" viewBox="0 0 46 46" fill="none"><g clip-path="url(#clip0_1308_1080)"><path d="M13.1245 10.0481H12.4058V35.9663H13.1245V10.0481Z" fill="white"></path><path d="M18.2417 10.0481H17.5229V35.9663H18.2417V10.0481Z" fill="white"></path><path d="M23.3594 10.0481H22.6406V35.9663H23.3594V10.0481Z" fill="white"></path><path d="M28.4771 10.0481H27.7583V35.9663H28.4771V10.0481Z" fill="white"></path><path d="M33.5942 10.0481H32.8755V35.9663H33.5942V10.0481Z" fill="white"></path><path d="M0 40.6669C0 43.6138 2.38625 46 5.33313 46C8.28 46 10.4506 43.8006 10.6375 41.0263H35.3625C35.5494 43.8006 37.835 46 40.6669 46C43.4988 46 46 43.6138 46 40.6669C46 37.72 43.8006 35.5494 41.0263 35.3625V10.6375C43.8006 10.4506 46 8.165 46 5.33313C46 2.50125 43.6138 0 40.6669 0C37.72 0 35.5494 2.19938 35.3625 4.97375H10.6375C10.4506 2.19938 8.165 0 5.33313 0C2.50125 0 0 2.38625 0 5.33313C0 8.28 2.19938 10.4506 4.97375 10.6375V35.3625C2.19938 35.5494 0 37.835 0 40.6669ZM10.6375 5.6925H35.3481C35.5206 8.35188 37.6338 10.465 40.2931 10.6375V35.3481C37.6338 35.5206 35.5206 37.6338 35.3481 40.2931H10.6375C10.465 37.6338 8.35188 35.5206 5.6925 35.3481V10.6375C8.35188 10.465 10.465 8.35188 10.6375 5.6925ZM5.33313 45.2812C2.78875 45.2812 0.71875 43.2113 0.71875 40.6669C0.71875 38.1225 2.78875 36.0525 5.33313 36.0525C7.8775 36.0525 9.9475 38.1225 9.9475 40.6669C9.9475 43.2113 7.8775 45.2812 5.33313 45.2812ZM45.2812 40.6669C45.2812 43.2113 43.2113 45.2812 40.6669 45.2812C38.1225 45.2812 36.0525 43.2113 36.0525 40.6669C36.0525 38.1225 38.1225 36.0525 40.6669 36.0525C43.2113 36.0525 45.2812 38.1225 45.2812 40.6669ZM40.6669 0.71875C43.2113 0.71875 45.2812 2.78875 45.2812 5.33313C45.2812 7.8775 43.2113 9.9475 40.6669 9.9475C38.1225 9.9475 36.0525 7.8775 36.0525 5.33313C36.0525 2.78875 38.1225 0.71875 40.6669 0.71875ZM0.71875 5.33313C0.71875 2.78875 2.78875 0.71875 5.33313 0.71875C7.8775 0.71875 9.9475 2.78875 9.9475 5.33313C9.9475 7.8775 7.8775 9.9475 5.33313 9.9475C2.78875 9.9475 0.71875 7.89187 0.71875 5.33313Z" fill="white"></path></g><defs><clipPath id="clip0_1308_1080"><rect width="46" height="46" fill="white"></rect></clipPath></defs></svg>
