<svg xmlns="http://www.w3.org/2000/svg" width="90" height="90" viewBox="0 0 90 90" fill="none"><g clip-path="url(#clip0_1306_673)"><g opacity="0.2"><path d="M45.0031 89.8812C20.1891 89.8812 0 69.725 0 44.9438C0 20.1625 20.1891 0 45.0031 0C69.8171 0 90.0063 20.1625 90.0063 44.9438C90.0063 69.725 69.8171 89.8875 45.0031 89.8875V89.8812ZM45.0031 19.7938C31.1223 19.7938 19.8262 31.075 19.8262 44.9375C19.8262 58.8 31.1223 70.0812 45.0031 70.0812C58.8839 70.0812 70.1801 58.8 70.1801 44.9375C70.1801 31.075 58.8839 19.7938 45.0031 19.7938Z" fill="#C7F08B"></path></g><path d="M45.0029 19.9125C50.4778 19.9125 54.916 15.4802 54.916 10.0125C54.916 4.54493 50.4778 0.112549 45.0029 0.112549C39.5281 0.112549 35.0898 4.54493 35.0898 10.0125C35.0898 15.4802 39.5281 19.9125 45.0029 19.9125Z" fill="#C7F08B"></path><path d="M45.0029 90C50.4778 90 54.916 85.5676 54.916 80.1C54.916 74.6323 50.4778 70.2 45.0029 70.2C39.5281 70.2 35.0898 74.6323 35.0898 80.1C35.0898 85.5676 39.5281 90 45.0029 90Z" fill="#C7F08B"></path><path d="M80.0928 54.8437C85.5676 54.8437 90.0059 50.4113 90.0059 44.9437C90.0059 39.4761 85.5676 35.0437 80.0928 35.0437C74.6179 35.0437 70.1797 39.4761 70.1797 44.9437C70.1797 50.4113 74.6179 54.8437 80.0928 54.8437Z" fill="#C7F08B"></path><path d="M9.91308 54.8437C15.3879 54.8437 19.8262 50.4113 19.8262 44.9437C19.8262 39.4761 15.3879 35.0437 9.91308 35.0437C4.43824 35.0437 0 39.4761 0 44.9437C0 50.4113 4.43824 54.8437 9.91308 54.8437Z" fill="#C7F08B"></path></g><defs><clipPath id="clip0_1306_673"><rect width="90" height="90" fill="white"></rect></clipPath></defs></svg>