<svg xmlns="http://www.w3.org/2000/svg" width="34" height="56" viewBox="0 0 34 56" fill="none"><path d="M25.9899 30.9456C30.6399 27.888 33.3679 22.7088 33.3679 17.1552C33.3679 12.6 31.5079 8.23199 28.2219 5.11199C24.8739 1.99199 20.5339 0.36959 15.9459 0.68159C7.5139 1.24319 0.817896 8.29439 0.631896 16.7808C0.507896 22.5216 3.29789 27.8256 8.07189 31.008C9.00189 31.632 9.5599 32.6928 9.5599 33.816V35.3136H9.3739C7.8239 35.3136 6.52189 36.5616 6.52189 38.184C6.52189 39.12 7.0179 39.9936 7.6999 40.4928C6.9559 40.992 6.52189 41.8656 6.52189 42.8016C6.52189 43.7376 7.0179 44.6112 7.6999 45.1104C6.9559 45.6096 6.52189 46.4832 6.52189 47.4192C6.52189 48.9792 7.7619 50.2896 9.3739 50.2896H10.9859C11.2339 53.4096 13.8379 55.8432 16.9999 55.8432C20.1619 55.8432 22.7659 53.4096 23.0139 50.2896H24.6259C26.1759 50.2896 27.4779 49.0416 27.4779 47.4192C27.4779 46.4832 26.9819 45.6096 26.2999 45.1104C27.0439 44.6112 27.4779 43.7376 27.4779 42.8016C27.4779 41.8656 26.9819 40.992 26.2999 40.4928C27.0439 39.9936 27.4779 39.12 27.4779 38.184C27.4779 36.624 26.2379 35.3136 24.6259 35.3136H24.4399V33.816C24.4399 32.6304 25.0599 31.5696 25.9899 30.9456ZM16.9999 54.6576C14.4579 54.6576 12.2879 52.6608 12.0399 50.1648H21.9599C21.6499 52.7232 19.5419 54.6576 16.9999 54.6576ZM26.4239 47.3568C26.4239 48.3552 25.6179 49.1664 24.6259 49.1664H9.3739C8.3819 49.1664 7.5759 48.3552 7.5759 47.3568C7.5759 46.3584 8.3819 45.5472 9.3739 45.5472H24.6879C25.6179 45.5472 26.4239 46.3584 26.4239 47.3568ZM26.4239 42.7392C26.4239 43.7376 25.6179 44.5488 24.6259 44.5488H9.3739C8.3819 44.5488 7.5759 43.7376 7.5759 42.7392C7.5759 41.7408 8.3819 40.9296 9.3739 40.9296H24.6879C25.6179 40.9296 26.4239 41.7408 26.4239 42.7392ZM26.4239 38.0592C26.4239 39.0576 25.6179 39.8688 24.6259 39.8688H9.3739C8.3819 39.8688 7.5759 39.0576 7.5759 38.0592C7.5759 37.0608 8.3819 36.2496 9.3739 36.2496H10.1179H24.0059H24.6879C25.6179 36.312 26.4239 37.1232 26.4239 38.0592ZM16.9999 18.84C16.2559 18.0288 15.8219 17.0304 15.8219 15.9072C15.8219 15.2832 16.3799 14.7216 16.9999 14.7216C17.6199 14.7216 18.1779 15.2832 18.1779 15.9072C18.1779 16.968 17.7439 18.0288 16.9999 18.84ZM16.9999 20.0256C17.8679 20.6496 18.9219 21.024 20.0379 21.024C20.9679 21.024 21.7739 20.8368 22.3939 20.4624L18.7359 35.2512H15.3259L11.6679 20.5248C12.2259 20.8368 12.9699 21.0864 14.0239 21.0864C15.0779 21.024 16.1319 20.712 16.9999 20.0256ZM19.6659 35.2512L23.8199 18.4656L24.5019 16.032C24.5639 15.7824 24.4399 15.5328 24.1919 15.4704C23.9439 15.408 23.6959 15.5328 23.6339 15.7824L22.8899 18.216C22.4559 19.8384 20.9059 20.088 19.9759 20.088C19.1699 20.088 18.3639 19.8384 17.6819 19.4016C18.5499 18.4656 19.0459 17.2176 19.0459 15.9072C19.0459 14.7216 18.1159 13.7856 16.9379 13.7856C15.7599 13.7856 14.8299 14.7216 14.8299 15.9072C14.8299 17.2176 15.3259 18.4656 16.1939 19.4016C15.5119 19.8384 14.7059 20.088 13.8999 20.088C12.2879 20.088 11.2959 19.464 10.9859 18.216L10.3039 15.7824C10.2419 15.5328 9.9939 15.408 9.7459 15.4704C9.4979 15.5328 9.3739 15.7824 9.43589 16.032L10.1179 18.4656L14.2719 35.2512H10.4899V33.7536C10.4899 32.256 9.7459 30.8832 8.5059 30.072C4.0419 27.1392 1.4379 22.1472 1.5619 16.7808C1.8719 8.85599 8.1339 2.24159 16.0079 1.74239C20.2859 1.49279 24.3779 2.92799 27.4779 5.92319C30.5779 8.85599 32.3139 12.8496 32.3139 17.1552C32.3139 22.3968 29.7099 27.2016 25.3699 30.072C24.1299 30.8832 23.3859 32.256 23.3859 33.7536V35.2512H19.6659Z" fill="black"></path></svg>