<?xml version="1.0" encoding="UTF-8"?>
<svg id="Layer_1" data-name="Layer 1" xmlns="http://www.w3.org/2000/svg" viewBox="0 0 1713.21 416.26">
  <defs>
    <style>
      .cls-1 {
        fill: #2b65f4;
      }
    </style>
  </defs>
  <path class="cls-1" d="m422.29,208.13c0,127.89-84.46,202.1-217.78,202.1H0V6.03h204.51c133.32,0,217.78,74.2,217.78,202.1Zm-121.26,0c0-91.09-24.73-100.14-96.52-100.14h-91.09v200.29h91.09c71.79,0,96.52-9.05,96.52-100.15Z"/>
  <path class="cls-1" d="m671.47,0C530.91,0,447.73,82.05,447.73,208.12s83.19,208.12,223.74,208.12,226.27-82.04,226.27-208.12S815.7,0,671.47,0Zm88.86,253.9c0,16.35-13.27,29.62-29.68,29.62h-89.88c-1.63,27.39-24.37,49.04-52.18,49.04s-52.3-23.41-52.3-52.3,21.72-50.55,49.04-52.18v-78.36c0-16.41,13.27-29.68,29.62-29.68h115.7c16.41,0,29.68,13.27,29.68,29.68v104.18Zm-171.74-25.94c-1.09,0-2.17.06-3.26.12v55.44h55.44c.06-1.09.12-2.17.12-3.26,0-28.89-23.41-52.3-52.3-52.3Z"/>
  <path class="cls-1" d="m1304.21,107.99h-142.37v302.24h-113.42V107.99h-142.97V6.03h398.77v101.96Z"/>
  <path class="cls-1" d="m1324.7,269.67v-3.62h113.42v12.67c0,27.15,9.65,34.39,85.66,34.39,68.78,0,76.01-5.43,76.01-23.53,0-14.48-7.84-20.51-41.02-24.74l-126.69-16.89c-75.4-10.26-113.41-50.67-113.41-115.83S1368.74,0,1514.73,0c128.5,0,190.03,56.11,190.03,146.6v3.62h-113.41v-9.05c0-28.95-12.67-38.61-88.68-38.61-57.91,0-70.59,7.84-70.59,25.34,0,12.67,7.24,18.7,28.96,21.72l126.69,18.7c98.94,14.48,125.48,65.15,125.48,117.04,0,69.38-53.09,130.91-189.43,130.91-123.67,0-199.08-44.04-199.08-146.59Z"/>
  <path class="cls-1" d="m640.88,280.27c0,1.09-.06,2.17-.12,3.26h-55.44v-55.44c1.09-.06,2.17-.12,3.26-.12,28.9,0,52.3,23.41,52.3,52.3Z"/>
  <path class="cls-1" d="m640.88,280.27c0,1.09-.06,2.17-.12,3.26h-55.44v-55.44c1.09-.06,2.17-.12,3.26-.12,28.9,0,52.3,23.41,52.3,52.3Z"/>
</svg>