<svg xmlns="http://www.w3.org/2000/svg" width="53" height="46" viewBox="0 0 53 46" fill="none"><path d="M49.761 12.988H35.8883V3.88228C35.8883 2.26253 34.5634 0.946777 32.9384 0.946777H3.23898C1.61391 0.946777 0.289062 2.26253 0.289062 3.88228V23.5188C0.289062 25.1385 1.61391 26.4543 3.23898 26.4543H6.0793V33.0995C6.0793 33.7788 6.94187 34.0733 7.36125 33.5365L12.8703 26.4543H17.1117V35.56C17.1117 37.1798 18.4366 38.4955 20.0616 38.4955H40.1297L45.6388 45.5778C46.0534 46.1145 46.9207 45.82 46.9207 45.1408V38.4955H49.761C51.3861 38.4955 52.7109 37.1798 52.7109 35.56V15.9235C52.7109 14.3038 51.3861 12.988 49.761 12.988ZM51.2812 35.56C51.2812 36.3913 50.5998 37.0705 49.761 37.0705H46.2059C45.8103 37.0705 45.491 37.3888 45.491 37.783V43.0603C40.7397 36.9518 40.978 37.0705 40.4823 37.0705H20.0616C19.2229 37.0705 18.5414 36.3913 18.5414 35.56V26.4543C34.4348 26.4543 33.5436 26.6348 34.5777 25.946H46.2059C47.1495 25.946 47.1495 24.521 46.2059 24.521H35.712C35.9455 23.8703 35.8883 23.8038 35.8883 19.885H46.2059C47.1495 19.885 47.1495 18.46 46.2059 18.46H35.8883V14.413H49.761C50.5998 14.413 51.2812 15.0923 51.2812 15.9235V35.56ZM11.9505 25.3048L7.50898 31.019V25.7418C7.50898 25.3475 7.18969 25.0293 6.79414 25.0293H3.23898C2.40023 25.0293 1.71875 24.35 1.71875 23.5188V3.88228C1.71875 3.05103 2.40023 2.37178 3.23898 2.37178H32.9384C33.7771 2.37178 34.4586 3.05103 34.4586 3.88228C34.4586 24.6968 34.7302 24.0175 33.9105 24.6825C33.2481 25.2193 33.9105 25.0293 17.8266 25.0293C12.0173 25.0293 12.246 24.9295 11.9505 25.3048Z" fill="black"></path><path d="M46.2059 30.5867H23.6169C22.6733 30.5867 22.6733 32.0117 23.6169 32.0117H46.2059C47.1495 32.0117 47.1495 30.5867 46.2059 30.5867Z" fill="black"></path><path d="M6.79461 7.55403H29.3837C30.3273 7.55403 30.3273 6.12903 29.3837 6.12903H6.79461C5.85102 6.12903 5.85102 7.55403 6.79461 7.55403Z" fill="black"></path><path d="M6.79461 13.615H29.3837C30.3273 13.615 30.3273 12.19 29.3837 12.19H6.79461C5.85102 12.19 5.85102 13.615 6.79461 13.615Z" fill="black"></path><path d="M29.3837 19.676C30.3273 19.676 30.3273 18.251 29.3837 18.251H6.79461C5.85102 18.251 5.85102 19.676 6.79461 19.676H29.3837Z" fill="black"></path></svg>