<svg xmlns="http://www.w3.org/2000/svg" width="25" height="25" viewBox="0 0 25 25" fill="none"><path d="M0 24.8H25V0H0V24.8ZM0.390625 0.3875H24.6094V24.4125H0.390625V0.3875Z" fill="black"></path><path d="M3.41333 21.414H21.5868V3.38599H3.41333V21.414ZM3.80396 3.77349H21.1961V21.0265H3.80396V3.77349Z" fill="black"></path><path d="M5.38672 12.4L12.5 19.4564L19.6133 12.4L12.5 5.34363L5.38672 12.4ZM12.5 18.9085L5.93906 12.4L12.5 5.89155L19.0609 12.4L12.5 18.9085Z" fill="black"></path><path d="M9.15466 12.4L12.5 15.7185L15.8453 12.4L12.5 9.08142L9.15466 12.4ZM12.5 15.1706L9.70701 12.4L12.5 9.62935L15.2929 12.4L12.5 15.1706Z" fill="black"></path></svg>