<svg xmlns="http://www.w3.org/2000/svg" width="84" height="69" viewBox="0 0 84 69" fill="none"><g clip-path="url(#clip0_1306_662)"><path d="M49.764 17.0039C49.764 12.7074 51.3683 8.79216 54.0156 5.79885C48.4977 2.13402 41.8682 0 34.7345 0C15.5509 0 0 15.4446 0 34.4972C0 53.5497 15.5509 68.9943 34.7345 68.9943C41.8682 68.9943 48.492 66.8603 54.0098 63.1955C51.3684 60.2021 49.7583 56.2812 49.7583 51.9904V17.0039H49.764Z" fill="#C7F08B"></path><path opacity="0.2" d="M66.8791 0C61.7508 0 57.1497 2.24214 54.0098 5.79885C63.3323 11.9847 69.469 22.5296 69.469 34.5028C69.469 46.4761 63.3265 57.021 54.0098 63.2068C57.1497 66.7579 61.7451 69.0057 66.8791 69.0057C76.3334 69.0057 83.9999 61.3915 83.9999 52.0018V17.0039C83.9999 7.61419 76.3334 0 66.8791 0Z" fill="#C7F08B"></path><path opacity="0.5" d="M69.4744 34.4972C69.4744 22.5239 63.332 11.979 54.0152 5.79321C51.3738 8.78653 49.7637 12.7074 49.7637 16.9982V51.9905C49.7637 56.287 51.368 60.2022 54.0152 63.1955C63.3377 57.0097 69.4744 46.4648 69.4744 34.4915V34.4972Z" fill="#C7F08B"></path></g><defs><clipPath id="clip0_1306_662"><rect width="84" height="69" fill="white"></rect></clipPath></defs></svg>