<svg xmlns="http://www.w3.org/2000/svg" width="47" height="46" viewBox="0 0 47 46" fill="none"><path d="M21.5156 45.6819C15.7734 45.6819 10.373 43.4634 6.31055 39.4431C2.25781 35.4131 0.0214844 30.0656 0.0214844 24.3694C0.0214844 18.6731 2.25781 13.3159 6.32031 9.29562C10.373 5.26562 15.7734 3.04718 21.5156 3.04718C21.8281 3.04718 22.082 3.29906 22.082 3.60906V23.8075H42.4434C42.7559 23.8075 43.0098 24.0594 43.0098 24.3694C43.0098 30.0656 40.7734 35.4131 36.7207 39.4431C32.668 43.4731 27.2578 45.6819 21.5156 45.6819ZM20.959 4.17093C9.98242 4.47124 1.14453 13.4128 1.14453 24.3694C1.14453 35.51 10.2852 44.5678 21.5156 44.5678C32.5606 44.5678 41.5742 35.8103 41.877 24.9216H21.5156C21.2031 24.9216 20.9492 24.6697 20.9492 24.3597V4.17093H20.959Z" fill="black"></path><path d="M45.5098 21.8894H24.582C24.2695 21.8894 24.0156 21.6375 24.0156 21.3275V0.567185C24.0156 0.257185 24.2695 0.00531006 24.582 0.00531006C30.3242 0.00531006 35.7246 2.22375 39.7773 6.25375C43.8398 10.2837 46.0664 15.6312 46.0664 21.3372C46.0664 21.6375 45.8125 21.8894 45.5098 21.8894ZM25.1387 20.7753H44.9336C44.6406 10.0706 35.9199 1.42937 25.1387 1.12906V20.7753Z" fill="black"></path><path d="M21.5156 45.6819C21.2031 45.6819 20.9492 45.43 20.9492 45.12V24.3694C20.9492 24.0594 21.2031 23.8075 21.5156 23.8075C21.8281 23.8075 22.082 24.0594 22.082 24.3694V45.1297C22.082 45.43 21.8281 45.6819 21.5156 45.6819Z" fill="black"></path><path d="M21.5156 24.9215H0.587891C0.275391 24.9215 0.0214844 24.6697 0.0214844 24.3597C0.0214844 24.0497 0.275391 23.7978 0.587891 23.7978H21.5254C21.8379 23.7978 22.0918 24.0497 22.0918 24.3597C22.0918 24.6697 21.8281 24.9215 21.5156 24.9215Z" fill="black"></path></svg>
