<svg width="78" height="81" viewBox="0 0 78 81" fill="none" xmlns="http://www.w3.org/2000/svg">
<g clip-path="url(#clip0_1103_4992)">
<path d="M0 42.3618C0 63.7048 17.4625 81.0068 39.0035 81.0068V42.3618H0Z" fill="#C9F28D"/>
<path d="M39.0034 81C60.5444 81 78.0069 63.698 78.0069 42.355H39.0034V81Z" fill="#1745CB"/>
<path d="M39.0034 0V38.645H78.0069C77.9999 17.302 60.5375 0 39.0034 0Z" fill="#82B9D4"/>
<path d="M19.237 36.6935C26.721 36.6935 32.788 30.6822 32.788 23.267C32.788 15.8518 26.721 9.84058 19.237 9.84058C11.753 9.84058 5.68604 15.8518 5.68604 23.267C5.68604 30.6822 11.753 36.6935 19.237 36.6935Z" fill="white"/>
</g>
<defs>
<clipPath id="clip0_1103_4992">
<rect width="78" height="81" fill="white"/>
</clipPath>
</defs>
</svg>
