<svg xmlns="http://www.w3.org/2000/svg" width="93" height="72" viewBox="0 0 93 72" fill="none"><g clip-path="url(#clip0_1306_666)"><path opacity="0.6" d="M30.7019 5.3059C23.7182 -1.73112 12.3484 -1.77534 5.30785 5.20483C-1.73272 12.185 -1.77696 23.5491 5.20673 30.5861L20.9753 46.4731L46.4705 21.1992L30.7019 5.31222V5.3059Z" fill="#C7F08B"></path><path opacity="0.63" d="M71.7591 46.673L46.2646 71.9508L46.3136 72.0001L71.808 46.7223L71.7591 46.673Z" fill="white"></path><path opacity="0.63" d="M20.9748 46.4694L20.9658 46.4783L46.2564 71.9599L46.2654 71.951L20.9748 46.4694Z" fill="white"></path><path opacity="0.3" d="M87.7928 5.49572C80.8092 -1.5413 69.4393 -1.58552 62.3988 5.39465L46.4658 21.1932L71.7525 46.6756L87.6854 30.877C94.726 23.8968 94.7702 12.5327 87.7865 5.49572H87.7928Z" fill="#C7F08B"></path><path opacity="0.63" d="M46.47 21.1942L20.9756 46.472L46.2661 71.9536L71.7606 46.6758L46.47 21.1942Z" fill="white"></path><path d="M46.47 21.1942L20.9756 46.472L46.2661 71.9536L71.7606 46.6758L46.47 21.1942Z" fill="#C7F08B"></path></g><defs><clipPath id="clip0_1306_666"><rect width="93" height="72" fill="white"></rect></clipPath></defs></svg>