<svg xmlns="http://www.w3.org/2000/svg" width="47" height="47" viewBox="0 0 46 46" fill="none"><g clip-path="url(#clip0_939_1571)"><path d="M8.38136 7.99153H0.584746C0.262161 7.99153 0 7.72936 0 7.40678V0.584746C0 0.262161 0.262161 0 0.584746 0H8.38136C8.70394 0 8.9661 0.262161 8.9661 0.584746V7.40678C8.9661 7.72936 8.70394 7.99153 8.38136 7.99153ZM1.16949 6.82203H7.79661V1.16949H1.16949V6.82203Z" fill="white"></path><path d="M45.4155 7.99153H37.6189C37.2963 7.99153 37.0342 7.72936 37.0342 7.40678V0.584746C37.0342 0.262161 37.2963 0 37.6189 0H45.4155C45.7381 0 46.0003 0.262161 46.0003 0.584746V7.40678C46.0003 7.72936 45.7381 7.99153 45.4155 7.99153ZM38.2037 6.82203H44.8308V1.16949H38.2037V6.82203Z" fill="white"></path><path d="M8.38136 46H0.584746C0.262161 46 0 45.7378 0 45.4153V38.5932C0 38.2706 0.262161 38.0085 0.584746 38.0085H8.38136C8.70394 38.0085 8.9661 38.2706 8.9661 38.5932V45.4153C8.9661 45.7378 8.70394 46 8.38136 46ZM1.16949 44.8305H7.79661V39.178H1.16949V44.8305Z" fill="white"></path><path d="M45.4155 46H37.6189C37.2963 46 37.0342 45.7378 37.0342 45.4153V38.5932C37.0342 38.2706 37.2963 38.0085 37.6189 38.0085H45.4155C45.7381 38.0085 46.0003 38.2706 46.0003 38.5932V45.4153C46.0003 45.7378 45.7381 46 45.4155 46ZM38.2037 44.8305H44.8308V39.178H38.2037V44.8305Z" fill="white"></path><path d="M4.48318 39.178C4.1606 39.178 3.89844 38.9158 3.89844 38.5932V7.40678C3.89844 7.0842 4.1606 6.82204 4.48318 6.82204C4.80577 6.82204 5.06793 7.0842 5.06793 7.40678V38.5932C5.06793 38.9158 4.80577 39.178 4.48318 39.178Z" fill="white"></path><path d="M37.6189 43.0763H8.38162C8.05904 43.0763 7.79688 42.8141 7.79688 42.4915C7.79688 42.1689 8.05904 41.9068 8.38162 41.9068H37.6189C37.9415 41.9068 38.2037 42.1689 38.2037 42.4915C38.2037 42.8141 37.9415 43.0763 37.6189 43.0763Z" fill="white"></path><path d="M41.5174 39.178C41.1948 39.178 40.9326 38.9158 40.9326 38.5932V7.40678C40.9326 7.0842 41.1948 6.82204 41.5174 6.82204C41.8399 6.82204 42.1021 7.0842 42.1021 7.40678V38.5932C42.1021 38.9158 41.8399 39.178 41.5174 39.178Z" fill="white"></path><path d="M37.6189 4.09321H8.38162C8.05904 4.09321 7.79688 3.83105 7.79688 3.50847C7.79688 3.18588 8.05904 2.92372 8.38162 2.92372H37.6189C37.9415 2.92372 38.2037 3.18588 38.2037 3.50847C38.2037 3.83105 37.9415 4.09321 37.6189 4.09321Z" fill="white"></path><path d="M22.5123 19.6864C19.7718 19.6864 17.542 17.4566 17.542 14.7161C17.542 11.9756 19.7718 9.74576 22.5123 9.74576C25.2528 9.74576 27.4827 11.9756 27.4827 14.7161C27.4827 17.4566 25.2528 19.6864 22.5123 19.6864ZM22.5123 10.9152C20.416 10.9152 18.7115 12.6198 18.7115 14.7161C18.7115 16.8124 20.416 18.5169 22.5123 18.5169C24.6086 18.5169 26.3132 16.8124 26.3132 14.7161C26.3132 12.6198 24.6086 10.9152 22.5123 10.9152Z" fill="white"></path><path d="M14.7164 33.3305C11.9759 33.3305 9.74609 31.1007 9.74609 28.3602C9.74609 25.6197 11.9759 23.3898 14.7164 23.3898C17.4569 23.3898 19.6868 25.6197 19.6868 28.3602C19.6868 31.1007 17.4569 33.3305 14.7164 33.3305ZM14.7164 24.5593C12.6201 24.5593 10.9156 26.2639 10.9156 28.3602C10.9156 30.4565 12.6201 32.161 14.7164 32.161C16.8127 32.161 18.5173 30.4565 18.5173 28.3602C18.5173 26.2639 16.8127 24.5593 14.7164 24.5593Z" fill="white"></path><path d="M31.2838 33.3305C28.5433 33.3305 26.3135 31.1007 26.3135 28.3602C26.3135 25.6197 28.5433 23.3898 31.2838 23.3898C34.0243 23.3898 36.2542 25.6197 36.2542 28.3602C36.2542 31.1007 34.0243 33.3305 31.2838 33.3305ZM31.2838 24.5593C29.1875 24.5593 27.483 26.2639 27.483 28.3602C27.483 30.4565 29.1875 32.161 31.2838 32.161C33.3801 32.161 35.0847 30.4565 35.0847 28.3602C35.0847 26.2639 33.3801 24.5593 31.2838 24.5593Z" fill="white"></path></g><defs><clipPath id="clip0_939_1571"><rect width="46" height="46" fill="white"></rect></clipPath></defs></svg>