<svg xmlns="http://www.w3.org/2000/svg" width="47" height="47" viewBox="0 0 48 48" fill="none"><g clip-path="url(#clip0_1308_1094)"><path d="M0 48H48V0H0V48ZM0.75 0.75H47.25V47.25H0.75V0.75Z" fill="white"></path><path d="M5.96973 42.03H42.0297V5.96997H5.96973V42.03ZM6.71973 6.71997H41.2797V41.28H6.71973V6.71997Z" fill="white"></path><path d="M12.3154 17.985H17.0254V13.275H12.3154V17.985ZM13.0654 14.025H16.2754V17.235H13.0654V14.025Z" fill="white"></path><path d="M12.3154 26.355H17.0254V21.645H12.3154V26.355ZM13.0654 22.41H16.2754V25.605H13.0654V22.41Z" fill="white"></path><path d="M12.3154 34.71H17.0254V30H12.3154V34.71ZM13.0654 30.75H16.2754V33.96H13.0654V30.75Z" fill="white"></path><path d="M21.6449 17.985H26.3399V13.275H21.6299V17.985H21.6449ZM22.3949 14.025H25.5899V17.235H22.3799V14.025H22.3949Z" fill="white"></path><path d="M21.6449 26.355H26.3399V21.645H21.6299V26.355H21.6449ZM22.3949 22.41H25.5899V25.605H22.3799V22.41H22.3949Z" fill="white"></path><path d="M21.6449 34.71H26.3399V30H21.6299V34.71H21.6449ZM22.3949 30.75H25.5899V33.96H22.3799V30.75H22.3949Z" fill="white"></path><path d="M30.9746 17.985H35.6846V13.275H30.9746V17.985ZM31.7246 14.025H34.9346V17.235H31.7246V14.025Z" fill="white"></path><path d="M30.9746 26.355H35.6846V21.645H30.9746V26.355ZM31.7246 22.41H34.9346V25.605H31.7246V22.41Z" fill="white"></path><path d="M30.9746 34.71H35.6846V30H30.9746V34.71ZM31.7246 30.75H34.9346V33.96H31.7246V30.75Z" fill="white"></path></g><defs><clipPath id="clip0_1308_1094"><rect width="48" height="48" fill="white"></rect></clipPath></defs></svg>