<svg width="89" height="82" viewBox="0 0 89 82" fill="none" xmlns="http://www.w3.org/2000/svg">
<path d="M15.919 36.8615C15.919 34.1048 16.2299 31.4215 16.8177 28.8452H0.228516V81.9374H53.461V72.9685C53.0258 72.9854 52.5849 72.9966 52.1497 72.9966C32.1409 72.9966 15.919 56.8176 15.919 36.8615Z" fill="#1745CB"/>
<path d="M52.1444 0.726074C34.8996 0.726074 20.4695 12.7448 16.8125 28.845H53.4557V72.9682C72.8541 72.2805 88.3694 56.3776 88.3694 36.8613C88.3694 17.3449 72.1532 0.726074 52.1444 0.726074Z" fill="#C9F28D"/>
<path d="M16.8128 28.8452C16.2249 31.4215 15.9141 34.1048 15.9141 36.8615C15.9141 56.8176 32.1359 72.9966 52.1447 72.9966C52.5856 72.9966 53.0208 72.9854 53.456 72.9685V28.8452H16.8128Z" fill="white"/>
<path d="M16.8128 28.8452C16.2249 31.4215 15.9141 34.1048 15.9141 36.8615C15.9141 56.8176 32.1359 72.9966 52.1447 72.9966C52.5856 72.9966 53.0208 72.9854 53.456 72.9685V28.8452H16.8128Z" fill="#82B9D4"/>
</svg>
